<svg xmlns="http://www.w3.org/2000/svg" viewBox="0 0 210 210" width="210" height="210"><g transform="translate(105,105) scale(1.12) translate(-102.2,-113.1)"><path d="m 91.772741,200.09467 c -0.224089,-0.23754 0.09457,-0.90206 0.732697,-2.04841 0.532802,-0.95713 1.710157,-2.90025 1.788094,-4.68202 -10e-7,0 0,0 0,0 0.107864,-1.0803 -0.376946,-2.42379 -1.404651,-3.35966 -1.282902,-1.29738 -3.130764,-2.02212 -5.684622,-2.92563 -10e-7,0 -5e-6,0 -5e-6,0 -3.038067,-0.98891 -6.305428,-1.56958 -10.283236,-2.05856 -6.918933,-0.84747 -14.762492,-2.75675 -22.724991,-6.41276 0,0 -8e-6,-1e-5 -8e-6,-1e-5 -6.511491,-2.95743 -13.418462,-7.33124 -19.01524,-13.77929 -4.898232,-5.66557 -8.393832,-13.21778 -8.746377,-21.64093 -0.16687,-8.63249 2.620621,-16.88618 7.020065,-24.1764 0.605463,-1.0033 1.235941,-1.97916 1.885665,-2.92594 6.244542,-9.27028 14.176829,-16.864712 21.349242,-23.342303 9.070945,-8.250143 15.449874,-13.375676 22.597736,-20.714427 7.139532,-7.46147 11.879545,-13.699672 14.134392,-20.783689 1.375209,-4.160515 1.687477,-8.17108 1.462943,-11.57404 -0.554162,-8.908203 -3.500385,-14.033686 -2.735587,-14.470713 0.764797,-0.437027 5.289151,3.627133 7.538492,13.763697 0.85064,3.902741 1.08781,8.718441 -0.07676,13.95383 -1.988745,8.600487 -6.877912,16.666993 -14.152035,24.810623 -6.936608,7.896941 -13.8054,13.988213 -22.240911,22.028256 -6.855405,6.579336 -14.234904,13.761776 -19.573042,21.865086 -0.537114,0.83347 -1.060814,1.67969 -1.56529,2.5364 -3.667514,6.22822 -6.077948,12.60223 -5.843809,18.76396 0.03315,5.80051 2.551035,11.48142 6.096733,15.94408 4.174458,5.27083 9.949403,9.22553 15.557673,12.21771 0,0 7e-6,0 7e-6,0 6.901815,3.64132 13.88471,5.87627 20.149592,7.22588 4.170371,0.86824 7.862064,1.96599 11.245043,3.51974 0,0 5e-6,0 5e-6,0 2.821789,1.22585 5.296843,2.90028 7.089735,5.19516 1.765529,2.32617 1.978605,5.04509 1.364631,7.12646 0,0 -2e-6,0 -2e-6,0 -0.978094,2.77799 -2.852632,4.4115 -3.871157,5.13775 -1.152851,0.82202 -1.881598,1.03239 -2.095026,0.80615 z" fill="#000000"/><path d="m 91.772741,200.09467 c -0.224089,-0.23754 0.09457,-0.90206 0.732697,-2.04841 0.532802,-0.95713 1.710157,-2.90025 1.788094,-4.68202 -10e-7,0 0,0 0,0 0.107864,-1.0803 -0.376946,-2.42379 -1.404651,-3.35966 -1.282902,-1.29738 -3.130764,-2.02212 -5.684622,-2.92563 -10e-7,0 -5e-6,0 -5e-6,0 -3.038067,-0.98891 -6.305428,-1.56958 -10.283236,-2.05856 -6.918933,-0.84747 -14.762492,-2.75675 -22.724991,-6.41276 0,0 -8e-6,-1e-5 -8e-6,-1e-5 -6.511491,-2.95743 -13.418462,-7.33124 -19.01524,-13.77929 -4.898232,-5.66557 -8.393832,-13.21778 -8.746377,-21.64093 -0.16687,-8.63249 2.620621,-16.88618 7.020065,-24.1764 0.605463,-1.0033 1.235941,-1.97916 1.885665,-2.92594 6.244542,-9.27028 14.176829,-16.864712 21.349242,-23.342303 9.070945,-8.250143 15.449874,-13.375676 22.597736,-20.714427 7.139532,-7.46147 11.879545,-13.699672 14.134392,-20.783689 1.375209,-4.160515 1.687477,-8.17108 1.462943,-11.57404 -0.554162,-8.908203 -3.500385,-14.033686 -2.735587,-14.470713 0.764797,-0.437027 5.289151,3.627133 7.538492,13.763697 0.85064,3.902741 1.08781,8.718441 -0.07676,13.95383 -1.988745,8.600487 -6.877912,16.666993 -14.152035,24.810623 -6.936608,7.896941 -13.8054,13.988213 -22.240911,22.028256 -6.855405,6.579336 -14.234904,13.761776 -19.573042,21.865086 -0.537114,0.83347 -1.060814,1.67969 -1.56529,2.5364 -3.667514,6.22822 -6.077948,12.60223 -5.843809,18.76396 0.03315,5.80051 2.551035,11.48142 6.096733,15.94408 4.174458,5.27083 9.949403,9.22553 15.557673,12.21771 0,0 7e-6,0 7e-6,0 6.901815,3.64132 13.88471,5.87627 20.149592,7.22588 4.170371,0.86824 7.862064,1.96599 11.245043,3.51974 0,0 5e-6,0 5e-6,0 2.821789,1.22585 5.296843,2.90028 7.089735,5.19516 1.765529,2.32617 1.978605,5.04509 1.364631,7.12646 0,0 -2e-6,0 -2e-6,0 -0.978094,2.77799 -2.852632,4.4115 -3.871157,5.13775 -1.152851,0.82202 -1.881598,1.03239 -2.095026,0.80615 z" transform="matrix(-1.0387424,0,0,1,205.65216,0.1617379)" fill="#000000"/><path d="m 113.21771,68.677749 c -0.66868,0.457554 -2.69527,-1.083546 -5.1857,-4.266705 -2.48339,-3.174162 -5.41074,-8.050498 -7.2768,-14.119136 -0.0754,-0.247003 -0.14867,-0.495678 -0.21986,-0.745982 -1.821171,-6.402675 -1.810978,-12.252842 -1.075544,-16.515361 0.727934,-4.219035 2.068344,-6.542391 2.838434,-6.402374 0.81336,0.147885 1.01492,2.702132 1.39041,6.584224 0.39029,4.035134 0.97957,8.969623 2.60855,14.694308 0.063,0.221589 0.127,0.441979 0.19182,0.661182 3.18054,10.852567 8.06606,19.194736 6.72869,20.109844 z" fill="#000000"/><path d="m 113.21771,68.677749 c -0.66868,0.457554 -2.69527,-1.083546 -5.1857,-4.266705 -2.48339,-3.174162 -5.41074,-8.050498 -7.2768,-14.119136 -0.0754,-0.247003 -0.14867,-0.495678 -0.21986,-0.745982 -1.821171,-6.402675 -1.810978,-12.252842 -1.075544,-16.515361 0.727934,-4.219035 2.068344,-6.542391 2.838434,-6.402374 0.81336,0.147885 1.01492,2.702132 1.39041,6.584224 0.39029,4.035134 0.97957,8.969623 2.60855,14.694308 0.063,0.221589 0.127,0.441979 0.19182,0.661182 3.18054,10.852567 8.06606,19.194736 6.72869,20.109844 z" transform="matrix(-0.81820415,0,0,0.89626696,183.97528,6.8793855)" fill="#000000"/><path d="m 103.78928,198.21718 c -0.43163,0.31889 -3.960755,-1.75991 -4.809914,-8.28343 -0.294309,-2.62557 0.186464,-5.65537 1.692804,-8.70913 1.37694,-2.82335 3.27528,-5.41438 5.61898,-8.07473 2.34185,-2.67702 4.77134,-5.08088 7.54894,-7.81591 0,0 1e-5,0 1e-5,0 4.70065,-4.66372 10.55577,-10.19071 14.24568,-16.34812 1.65138,-2.74127 2.99596,-5.73708 3.62338,-8.85758 0.01,-0.0476 0.019,-0.0953 0.0282,-0.14297 0.68775,-3.4021 0.50425,-6.9427 -0.28687,-10.24474 -2.13379,-9.1355 -8.1055,-18.09845 -12.34995,-24.79338 -5.2793,-8.205231 -8.38565,-13.522202 -10.61286,-19.126585 -1.94961,-4.905882 -2.32791,-7.920866 -1.84931,-8.080398 0.4786,-0.159532 1.73501,2.49525 4.34653,6.850511 3.48791,5.816814 5.85826,8.90666 12.15302,17.598452 4.74045,6.45501 11.24264,15.5281 14.04261,26.11889 1.04615,4.04709 1.29158,8.4595 0.43259,12.84437 -0.0123,0.0607 -0.0248,0.12127 -0.0374,0.18183 -0.83035,3.97087 -2.45573,7.59466 -4.45012,10.76153 -4.4646,7.05564 -10.71495,12.66541 -15.66323,17.08546 0,0 0,1e-5 0,1e-5 -2.94912,2.65528 -5.34236,4.75891 -7.74822,7.16439 -2.372,2.39009 -4.20902,4.4556 -5.59159,6.74167 -1.44226,2.40647 -2.14939,4.63701 -2.19488,6.68871 -0.22805,5.08742 2.29322,8.12226 1.86159,8.44115 z" transform="matrix(1.3192353,0,0,1,-30.748282,3.0297188)" fill="#000000"/><path d="m 103.78928,198.21718 c -0.43163,0.31889 -3.960755,-1.75991 -4.809914,-8.28343 -0.294309,-2.62557 0.186464,-5.65537 1.692804,-8.70913 1.37694,-2.82335 3.27528,-5.41438 5.61898,-8.07473 2.34185,-2.67702 4.77134,-5.08088 7.54894,-7.81591 0,0 1e-5,0 1e-5,0 4.70065,-4.66372 10.55577,-10.19071 14.24568,-16.34812 1.65138,-2.74127 2.99596,-5.73708 3.62338,-8.85758 0.01,-0.0476 0.019,-0.0953 0.0282,-0.14297 0.68775,-3.4021 0.50425,-6.9427 -0.28687,-10.24474 -2.13379,-9.1355 -8.1055,-18.09845 -12.34995,-24.79338 -5.2793,-8.205231 -8.38565,-13.522202 -10.61286,-19.126585 -1.94961,-4.905882 -2.32791,-7.920866 -1.84931,-8.080398 0.4786,-0.159532 1.73501,2.49525 4.34653,6.850511 3.48791,5.816814 5.85826,8.90666 12.15302,17.598452 4.74045,6.45501 11.24264,15.5281 14.04261,26.11889 1.04615,4.04709 1.29158,8.4595 0.43259,12.84437 -0.0123,0.0607 -0.0248,0.12127 -0.0374,0.18183 -0.83035,3.97087 -2.45573,7.59466 -4.45012,10.76153 -4.4646,7.05564 -10.71495,12.66541 -15.66323,17.08546 0,0 0,1e-5 0,1e-5 -2.94912,2.65528 -5.34236,4.75891 -7.74822,7.16439 -2.372,2.39009 -4.20902,4.4556 -5.59159,6.74167 -1.44226,2.40647 -2.14939,4.63701 -2.19488,6.68871 -0.22805,5.08742 2.29322,8.12226 1.86159,8.44115 z" transform="matrix(-1.2268295,0,0,1,223.18556,2.3844584)" fill="#000000"/><path d="m 101.12668,187.67857 c -1.137827,0.1264 -3.004146,-8.98591 -7.975834,-21.65684 -1.965147,-4.98613 -5.045387,-12.13815 -6.833278,-18.89989 -0.0667,-0.25113 -0.131674,-0.50348 -0.194839,-0.75701 -1.696939,-6.81101 -1.836247,-13.42241 -0.501345,-19.39212 1.799321,-7.7051 5.590527,-13.70437 8.301614,-17.22388 2.831948,-3.6764 4.924117,-5.39243 5.409865,-5.03451 0.485748,0.35792 -0.689369,2.76154 -2.617461,6.76522 -1.810316,3.75912 -4.710358,9.871 -5.753346,16.5469 -0.85654,5.13769 -0.50921,10.80084 0.980572,16.90204 0.05541,0.2269 0.112075,0.45309 0.169948,0.67853 1.715891,6.64732 4.236959,12.89936 6.028123,18.66184 4.253281,13.61047 4.207371,23.27404 2.985981,23.40972 z" fill="#000000"/><path d="m 100.1867,187.26486 c -1.070061,-0.24205 -0.11683,-8.63083 4.22716,-19.95968 2.02888,-5.32041 4.68699,-11.23135 6.74534,-17.60735 0.16276,-0.50604 0.32129,-1.01606 0.47489,-1.52963 1.73961,-5.81643 2.57184,-11.16866 2.47463,-16.20325 -0.16262,-12.95736 -4.99287,-21.85801 -3.93456,-22.41502 1.0583,-0.557 8.03295,7.43943 9.34473,22.12647 0.47612,5.72214 -0.22365,11.86345 -2.14184,18.21779 -0.16972,0.56224 -0.34668,1.11849 -0.53012,1.6684 -2.17553,6.54232 -5.39893,13.05617 -7.69877,17.7889 -5.19291,10.73555 -7.8914,18.15542 -8.96146,17.91337 z" fill="#000000"/></g></svg>